<?xml version="1.0" encoding="utf-8"?>
<!-- Generator: Adobe Illustrator 24.1.2, SVG Export Plug-In . SVG Version: 6.00 Build 0)  -->
<svg version="1.1" xmlns="http://www.w3.org/2000/svg" xmlns:xlink="http://www.w3.org/1999/xlink" x="0px" y="0px"
	 viewBox="0 0 256 392" style="enable-background:new 0 0 256 392;" xml:space="preserve">
<style type="text/css">
	.st0{fill:#FFFFFF;}
	.st1{fill:none;stroke:#F7931E;stroke-width:7;stroke-miterlimit:10;stroke-dasharray:15.9638,7.9819;}
	.st2{fill:none;stroke:#F7931E;stroke-width:7;stroke-miterlimit:10;}
	.st3{fill:none;stroke:#F7931E;stroke-width:7;stroke-miterlimit:10;stroke-dasharray:12.7806,6.3903;}
	.st4{fill:none;stroke:#F7931E;stroke-width:7;stroke-miterlimit:10;stroke-dasharray:15.0678,7.5339;}
	.st5{fill:none;stroke:#F7931E;stroke-width:7;stroke-miterlimit:10;stroke-dasharray:13.9434,6.9717;}
	.st6{fill:none;stroke:#F7931E;stroke-width:7;stroke-miterlimit:10;stroke-dasharray:14.3621,7.181;}
	.st7{fill:none;stroke:#F7931E;stroke-width:7;stroke-miterlimit:10;stroke-dasharray:15.7177,7.8589;}
	.st8{fill:none;stroke:#F7931E;stroke-width:7;stroke-miterlimit:10;stroke-dasharray:15.7173,7.8586;}
	.st9{fill:none;stroke:#F7931E;stroke-width:7;stroke-miterlimit:10;stroke-dasharray:15.3135,7.6568;}
	.st10{fill:none;stroke:#F7931E;stroke-width:7;stroke-miterlimit:10;stroke-dasharray:13.3703,6.6852;}
	.st11{fill:none;stroke:#F7931E;stroke-width:7;stroke-miterlimit:10;stroke-dasharray:13.1553,6.5777;}
</style>
<g id="レイヤー_1">
	<g>
		<path class="st0" d="M783.4,772.3c0-411.4,0-821.9,0-1233c267.1,0,534.3,0,802,0c0,410.4,0,821.4,0,1233
			C1318.8,772.3,1051.7,772.3,783.4,772.3z M1029.2,130.9c1.7,0.4,3.3,0.9,5,1.3c0,7.9,0,15.9,0,23.8c0,135.4,0,270.8,0,406.1
			c0,38.5,21.7,64.3,54.4,65c33,0.7,55.9-26.2,55.9-66c0.1-80.2,0-160.5,0-240.7c0-8.9,0-17.9,0-27.4c14.9,0,26.8,0,40.7,0
			c0,10.7,0,19.7,0,28.8c0,80.2-0.3,160.5,0.2,240.7c0.2,37.7,24,64.6,55.5,64.7c32.1,0.2,54.1-25.9,54.1-64.4
			c0-134.5,0-269.1,0-403.6c0-8.3,0-16.6,0-27.9c5.3,4,6.3,4.3,6.6,5c11.7,22.9,23,45.9,34.9,68.6c18.1,34.7,48.1,46.5,78.1,30.9
			c28.9-15.1,37.6-48.8,19.2-81.5c-43.6-77.5-87.8-154.7-132.3-231.7c-16.2-28-41.1-42.6-74-42.5c-42.6,0.1-85.2,0-127.8,0
			c-31.8,0.1-56.7,14-72.3,41.2C982,0.4,937.1,80.1,893.1,160.2c-5.9,10.8-9.3,25.9-7.2,37.8c4,22.5,18.4,39.2,42.6,43
			c27.8,4.4,47.2-4.9,60.3-29.4C1002.9,185,1015.8,157.8,1029.2,130.9z M1162.5-148.7c64.5-0.3,112.6-49.5,112.5-114.5
			c-0.1-53.7-40.7-109.9-113.7-112.1c-62-1.9-112.3,52.1-112.1,115.7C1049.4-196.7,1098.8-148.4,1162.5-148.7z"/>
		<path d="M1029.2,130.9c-13.4,26.9-26.3,54.1-40.4,80.7c-13,24.5-32.5,33.9-60.3,29.4c-24.2-3.9-38.6-20.5-42.6-43
			c-2.1-11.9,1.2-26.9,7.2-37.8c44-80.1,88.9-159.8,134.3-239c15.6-27.2,40.4-41.1,72.3-41.2c42.6-0.1,85.2,0.1,127.8,0
			c32.9-0.1,57.8,14.5,74,42.5c44.5,77,88.7,154.2,132.3,231.7c18.4,32.7,9.7,66.5-19.2,81.5c-29.9,15.6-60,3.8-78.1-30.9
			c-11.8-22.8-23.2-45.8-34.9-68.6c-0.3-0.7-1.3-1-6.6-5c0,11.4,0,19.7,0,27.9c0,134.5,0,269.1,0,403.6c0,38.4-22,64.5-54.1,64.4
			c-31.5-0.2-55.3-27-55.5-64.7c-0.5-80.2-0.2-160.5-0.2-240.7c0-9.1,0-18.1,0-28.8c-13.8,0-25.8,0-40.7,0c0,9.6,0,18.5,0,27.4
			c0,80.2,0,160.5,0,240.7c0,39.9-22.9,66.7-55.9,66c-32.6-0.7-54.4-26.5-54.4-65c-0.1-135.4,0-270.8,0-406.1c0-7.9,0-15.9,0-23.8
			C1032.6,131.7,1030.9,131.3,1029.2,130.9z M1060.6,317.1c0,30.1,0,60.2,0,90.3c0,51.8-0.4,103.6,0.2,155.5
			c0.3,26.5,12.9,38.8,34.1,34.7c21.3-4,23.4-21.1,23.4-38.3c0.2-76.9,0.1-153.8,0.1-230.7c0-62.3,0-62.3,61.3-62.3
			c34.6,0,34.6,0,34.7,34.9c0,87.8-0.1,175.5,0.1,263.3c0.1,25.2,9.1,35.7,29.1,33.4c22.6-2.6,26.5-18.7,26.4-38.1
			c-0.2-159.6-0.2-319.3,0.3-478.9c0-8.5,5.7-16.9,8.7-25.4c7.4,6.2,17.4,11,21.7,18.9c21.5,40,41.2,81,62.3,121.3
			c11.1,21.3,30,27.1,44.3,13.8c14.1-13.1,10.8-28.2,2.2-43.2c-43.2-75.8-86.4-151.6-129.5-227.5c-12.2-21.5-31.1-32.3-55.4-32.6
			c-40.9-0.6-81.9-0.9-122.8,0.2c-23.7,0.6-42.1,10.9-54.5,33.3C1005.2,16,961.9,91.8,918.9,167.7c-9.7,17.1-12.7,34.2,7.4,44.8
			c19.6,10.3,32.9,0,41.8-18.2c20.3-41.6,40.3-83.4,61.7-124.4c4.2-8,14.4-12.8,21.8-19.1c3,8.5,8.6,17,8.6,25.6
			C1060.9,156.6,1060.6,236.8,1060.6,317.1z"/>
		<path d="M1162.5-148.7c-63.7,0.3-113.1-48-113.3-110.9c-0.2-63.6,50.1-117.6,112.1-115.7c73,2.2,113.6,58.4,113.7,112.1
			C1275.1-198.2,1227-149,1162.5-148.7z M1161.8-347c-47,0-86.5,38.2-87.4,84.5c-0.9,46.1,40.4,87.3,87.6,87.2
			c47.4,0,88.6-41.3,87.4-87.4C1248.2-308.9,1208.6-347,1161.8-347z"/>
		<path class="st0" d="M1060.6,317.1c0-80.2,0.3-160.5-0.4-240.7c-0.1-8.5-5.6-17-8.6-25.6c-7.4,6.3-17.6,11.2-21.8,19.1
			c-21.4,41-41.4,82.8-61.7,124.4c-8.9,18.2-22.2,28.5-41.8,18.2c-20.2-10.6-17.1-27.7-7.4-44.8c43-75.9,86.3-151.7,128.5-228.1
			c12.3-22.4,30.7-32.6,54.5-33.3c40.9-1,81.9-0.7,122.8-0.2c24.2,0.3,43.1,11.1,55.4,32.6c43.1,75.8,86.3,151.7,129.5,227.5
			c8.5,15,11.9,30.1-2.2,43.2c-14.2,13.2-33.1,7.5-44.3-13.8c-21.1-40.3-40.7-81.3-62.3-121.3c-4.3-7.9-14.3-12.7-21.7-18.9
			c-3,8.5-8.7,16.9-8.7,25.4c-0.5,159.6-0.5,319.3-0.3,478.9c0,19.3-3.9,35.5-26.4,38.1c-20,2.3-29-8.2-29.1-33.4
			c-0.2-87.8-0.1-175.5-0.1-263.3c0-34.9-0.1-34.9-34.7-34.9c-61.3-0.1-61.3-0.1-61.3,62.3c0,76.9,0.1,153.8-0.1,230.7
			c0,17.2-2.1,34.3-23.4,38.3c-21.2,4-33.8-8.2-34.1-34.7c-0.6-51.8-0.2-103.6-0.2-155.5C1060.6,377.2,1060.6,347.1,1060.6,317.1z"
			/>
		<path class="st0" d="M1161.8-347c46.8,0,86.4,38.1,87.6,84.3c1.2,46.1-40,87.4-87.4,87.4c-47.2,0-88.5-41.2-87.6-87.2
			C1075.3-308.7,1114.8-347,1161.8-347z"/>
	</g>
</g>
<g id="レイヤー_2">
	<g>
		<path class="st1" d="M158.5,42.6c-0.7,40.9-59.2,40.9-59.9,0C99.3,1.8,157.8,1.8,158.5,42.6z"/>
	</g>
	<g>
		<g>
			<g>
				<path class="st2" d="M27.1,122.1c-3,0-5.3-1.2-7.1-3.2"/>
				<path class="st3" d="M17,113.4c-1.5-5-1.1-11.2,1.2-15.6"/>
				<path class="st2" d="M20.1,95.2c1.8-1.9,4.1-3.2,7.1-3.2"/>
			</g>
			<g>
				<line class="st2" x1="230.8" y1="92" x2="222.8" y2="92"/>
				<line class="st4" x1="215.3" y1="92" x2="38.2" y2="92"/>
				<line class="st2" x1="34.5" y1="92" x2="26.5" y2="92"/>
			</g>
			<g>
				<path class="st2" d="M165.4,122.1c-0.1-0.2,3-0.3,8-0.3"/>
				<path class="st5" d="M180.3,121.8c11,0,26.1,0.2,38.3,0.3"/>
				<path class="st2" d="M222.1,122.1c2.9,0,5.6,0,8,0"/>
			</g>
			<g>
				<path class="st2" d="M26.2,122.1c2.3,0,5.1,0,8,0"/>
				<path class="st6" d="M41.4,122.1c13.2,0,29,0,39.5,0"/>
				<path class="st2" d="M84.5,122.1c4.9,0,8,0,8,0"/>
			</g>
			<g>
				<path class="st2" d="M92.3,122.1c0-0.2,0.1,2.6,0.1,8"/>
				<path class="st7" d="M92.4,138c0.3,39.7,0.8,145,0.8,208.3"/>
				<path class="st2" d="M93.3,350.2c0,2.8,0,5.4,0,8"/>
			</g>
			<g>
				<path class="st2" d="M163.4,358.2c0,0,0-2.9,0.1-8"/>
				<path class="st8" d="M163.5,342.3c0.4-44.4,1.4-169.1,1.8-208.3"/>
				<path class="st2" d="M165.3,130.1c0-5.1,0.1-8,0.1-8"/>
			</g>
			<g>
				<line class="st2" x1="127.9" y1="358.6" x2="127.9" y2="350.6"/>
				<line class="st9" x1="127.9" y1="343" x2="127.9" y2="231.9"/>
				<line class="st2" x1="127.9" y1="228.1" x2="127.9" y2="220.1"/>
			</g>
			<g>
				<path class="st2" d="M229.5,122.1c3,0,5.3-1.2,7.1-3.2"/>
				<path class="st3" d="M239.6,113.4c1.5-5,1.1-11.2-1.2-15.6"/>
				<path class="st2" d="M236.5,95.2c-1.8-1.9-4.1-3.2-7.1-3.2"/>
			</g>
			<g>
				<path class="st2" d="M127.9,357.5c0,2.9,0.4,5.6,1,7.9"/>
				<path class="st10" d="M131.6,371.5c7.4,11.3,23.8,10.3,29.7-2.9"/>
				<path class="st2" d="M162.4,365.4c0.7-2.3,1-5,1-7.9"/>
			</g>
			<g>
				<path class="st2" d="M93.3,357.5c0,2.9,0.4,5.6,1,7.9"/>
				<path class="st11" d="M96.9,371.4c7.2,11.3,23.2,10.4,28.9-2.9"/>
				<path class="st2" d="M126.9,365.4c0.6-2.3,1-5,1-7.9"/>
			</g>
		</g>
	</g>
</g>
</svg>
